<svg width="25" height="26" viewBox="0 0 25 26" fill="current" xmlns="http://www.w3.org/2000/svg">
<mask id="mask0_948_428" style="mask-type:alpha" maskUnits="userSpaceOnUse" x="0" y="0" width="25" height="26">
<path fill-rule="evenodd" clip-rule="evenodd" d="M0.833496 0.166992H24.7499V25.2562H0.833496V0.166992Z" fill="current"/>
</mask>
<g mask="url(#mask0_948_428)">
<path fill-rule="evenodd" clip-rule="evenodd" d="M14.5033 16.8401C15.908 16.8401 17.0513 17.9753 17.0513 19.3706V22.9593C17.0513 23.2591 17.2917 23.4994 17.5997 23.5064H19.8233C21.5757 23.5064 23.0002 22.0995 23.0002 20.3705V10.1925C22.992 9.59745 22.7085 9.03745 22.222 8.66528L14.5302 2.53095C13.4977 1.71312 12.0533 1.71312 11.0173 2.53328L3.378 8.66295C2.87283 9.04678 2.58933 9.60678 2.5835 10.2123V20.3705C2.5835 22.0995 4.008 23.5064 5.76033 23.5064H8.005C8.32116 23.5064 8.57783 23.2556 8.57783 22.9476C8.57783 22.8799 8.586 22.8123 8.6 22.7481V19.3706C8.6 17.9835 9.73633 16.8495 11.1305 16.8401H14.5033ZM19.8233 25.2565H17.5787C16.293 25.2261 15.3013 24.217 15.3013 22.9593V19.3706C15.3013 18.9401 14.9432 18.5901 14.5033 18.5901H11.1363C10.7058 18.5925 10.35 18.9436 10.35 19.3706V22.9476C10.35 23.0351 10.3383 23.1191 10.3138 23.1985C10.1878 24.3535 9.20083 25.2565 8.005 25.2565H5.76033C3.04316 25.2565 0.833496 23.0643 0.833496 20.3704V10.2041C0.845163 9.04445 1.3795 7.98278 2.30233 7.28395L9.9265 1.16478C11.6053 -0.165216 13.9445 -0.165216 15.6198 1.16245L23.2988 7.28745C24.2007 7.97462 24.735 9.03395 24.7502 10.1796V20.3704C24.7502 23.0643 22.5405 25.2565 19.8233 25.2565V25.2565Z" fill="current"/>
</g>
</svg>
