<svg width="19" height="24" viewBox="0 0 19 24" fill="current" xmlns="http://www.w3.org/2000/svg">
<mask id="mask0_948_456" style="mask-type:alpha" maskUnits="userSpaceOnUse" x="0" y="14" width="19" height="10">
<path fill-rule="evenodd" clip-rule="evenodd" d="M0.166504 14.9121H18.6464V23.5151H0.166504V14.9121Z" fill="white"/>
</mask>
<g mask="url(#mask0_948_456)">
<path fill-rule="evenodd" clip-rule="evenodd" d="M9.40767 16.6621C4.4365 16.6621 1.9165 17.5161 1.9165 19.2019C1.9165 20.9029 4.4365 21.7651 9.40767 21.7651C14.3777 21.7651 16.8965 20.9111 16.8965 19.2253C16.8965 17.5243 14.3777 16.6621 9.40767 16.6621ZM9.40767 23.5151C7.12217 23.5151 0.166504 23.5151 0.166504 19.2019C0.166504 15.3566 5.441 14.9121 9.40767 14.9121C11.6932 14.9121 18.6465 14.9121 18.6465 19.2253C18.6465 23.0706 13.3732 23.5151 9.40767 23.5151Z" fill="current"/>
</g>
<mask id="mask1_948_456" style="mask-type:alpha" maskUnits="userSpaceOnUse" x="3" y="0" width="13" height="13">
<path fill-rule="evenodd" clip-rule="evenodd" d="M3.21143 0.333008H15.6015V12.7214H3.21143V0.333008Z" fill="white"/>
</mask>
<g mask="url(#mask1_948_456)">
<path fill-rule="evenodd" clip-rule="evenodd" d="M9.40763 1.99901C6.9098 1.99901 4.87746 4.03017 4.87746 6.52801C4.8693 9.01767 6.88646 11.0477 9.3738 11.057L9.40763 11.89V11.057C11.9043 11.057 13.9355 9.02467 13.9355 6.52801C13.9355 4.03017 11.9043 1.99901 9.40763 1.99901ZM9.40763 12.7218H9.3703C5.9613 12.7113 3.1998 9.93117 3.21146 6.52451C3.21146 3.11201 5.99046 0.333008 9.40763 0.333008C12.8236 0.333008 15.6015 3.11201 15.6015 6.52801C15.6015 9.94401 12.8236 12.7218 9.40763 12.7218Z" fill="current"/>
</g>
</svg>
