<svg width="24" height="25" viewBox="0 0 24 25" fill="current" xmlns="http://www.w3.org/2000/svg">
<mask id="mask0_948_439" style="mask-type:alpha" maskUnits="userSpaceOnUse" x="0" y="0" width="24" height="24">
<path fill-rule="evenodd" clip-rule="evenodd" d="M0.333496 0.333008H23.0564V23.0562H0.333496V0.333008Z" fill="current"/>
</mask>
<g mask="url(#mask0_948_439)">
<path fill-rule="evenodd" clip-rule="evenodd" d="M11.6957 2.08301C6.3955 2.08301 2.0835 6.39384 2.0835 11.694C2.0835 16.9942 6.3955 21.3062 11.6957 21.3062C16.9947 21.3062 21.3067 16.9942 21.3067 11.694C21.3067 6.39384 16.9947 2.08301 11.6957 2.08301ZM11.6957 23.0562C5.43066 23.0562 0.333496 17.959 0.333496 11.694C0.333496 5.42901 5.43066 0.333008 11.6957 0.333008C17.9607 0.333008 23.0567 5.42901 23.0567 11.694C23.0567 17.959 17.9607 23.0562 11.6957 23.0562Z" fill="current"/>
</g>
<mask id="mask1_948_439" style="mask-type:alpha" maskUnits="userSpaceOnUse" x="18" y="18" width="6" height="7">
<path fill-rule="evenodd" clip-rule="evenodd" d="M18.1133 18.6582H23.9747V24.5087H18.1133V18.6582Z" fill="current"/>
</mask>
<g mask="url(#mask1_948_439)">
<path fill-rule="evenodd" clip-rule="evenodd" d="M23.0999 24.5087C22.8771 24.5087 22.6531 24.4236 22.4816 24.2532L18.3702 20.1536C18.0284 19.8117 18.0272 19.2576 18.3691 18.9157C18.7097 18.5716 19.2639 18.5739 19.6069 18.9134L23.7182 23.0142C24.0601 23.3561 24.0612 23.9091 23.7194 24.2509C23.5491 24.4236 23.3239 24.5087 23.0999 24.5087Z" fill="#61646B"/>
</g>
</svg>
