<svg width="24" height="24" viewBox="0 0 24 24" fill="current" xmlns="http://www.w3.org/2000/svg">
<path fill-rule="evenodd" clip-rule="evenodd" d="M7.12109 17.5625C6.70709 17.5625 6.37109 17.2265 6.37109 16.8125V9.9525C6.37109 9.5385 6.70709 9.2025 7.12109 9.2025C7.53509 9.2025 7.87109 9.5385 7.87109 9.9525V16.8125C7.87109 17.2265 7.53509 17.5625 7.12109 17.5625Z" fill="current"/>
<path fill-rule="evenodd" clip-rule="evenodd" d="M11.7881 17.5615C11.3741 17.5615 11.0381 17.2255 11.0381 16.8115V6.6685C11.0381 6.2545 11.3741 5.9185 11.7881 5.9185C12.2021 5.9185 12.5381 6.2545 12.5381 6.6685V16.8115C12.5381 17.2255 12.2021 17.5615 11.7881 17.5615Z" fill="current"/>
<path fill-rule="evenodd" clip-rule="evenodd" d="M16.3784 17.5615C15.9644 17.5615 15.6284 17.2255 15.6284 16.8115V13.5775C15.6284 13.1635 15.9644 12.8275 16.3784 12.8275C16.7924 12.8275 17.1284 13.1635 17.1284 13.5775V16.8115C17.1284 17.2255 16.7924 17.5615 16.3784 17.5615Z" fill="current"/>
<path fill-rule="evenodd" clip-rule="evenodd" d="M7.064 2.5C4.292 2.5 2.5 4.397 2.5 7.335V16.165C2.5 19.103 4.292 21 7.064 21H16.436C19.209 21 21 19.103 21 16.165V7.335C21 4.397 19.209 2.5 16.436 2.5H7.064ZM16.436 22.5H7.064C3.437 22.5 1 19.954 1 16.165V7.335C1 3.546 3.437 1 7.064 1H16.436C20.063 1 22.5 3.546 22.5 7.335V16.165C22.5 19.954 20.063 22.5 16.436 22.5Z" fill="current"/>
</svg>
